<svg xmlns="http://www.w3.org/2000/svg" width="16" height="16"><polygon points="16,14 16,10 14,10 14,9.414 15.414,8 14,8 14,0 0,0 0,15 9.586,15 10.586,16 15.414,16 14,14.586 14,14" fill="#F6F6F6"/><g fill="#424242"><polygon points="5,4 5,5 5,6 10,6 10,5 10,4"/><polygon points="3,13 3,2 12,2 12,8 13,8 13,1 1,1 1,2 2,2 2,3 1,3 1,4 2,4 2,5 1,5 1,6 2,6 2,7 1,7 1,8 2,8 2,9 1,9 1,10 2,10 2,11 1,11 1,12 2,12 2,13 1,13 1,14 8.586,14 7.586,13"/></g><path d="M15 13h-4l2 2h-2l-3-3 3-3h2l-2 2h4v2z" fill="#00539C"/><path d="M6.586 12l4-4h1.414v-6h-9v11h4.586l-1-1zm-1.586-7v-1h5v2h-5v-1z" fill="#F0EFF1"/></svg>