<svg version="1" xmlns="http://www.w3.org/2000/svg" width="16" height="16"><path fill="#fff" d="M12.714 9.602c-.07.207-.15.408-.246.602l1.017 2.139c-.335.424-.718.807-1.142 1.143l-2.14-1.018c-.193.097-.394.176-.601.246l-.795 2.236c-.265.031-.534.05-.807.05-.272 0-.541-.019-.806-.051l-.795-2.234c-.207-.072-.408-.15-.602-.248l-2.14 1.018c-.424-.336-.807-.719-1.143-1.143l1.017-2.139c-.094-.193-.175-.394-.245-.601l-2.236-.795c-.03-.266-.05-.534-.05-.807s.02-.543.05-.807l2.236-.796c.07-.208.15-.407.246-.601l-1.016-2.138c.336-.424.719-.807 1.143-1.143l2.14 1.016c.193-.096.394-.175.602-.246l.795-2.236c.263-.029.532-.049.804-.049.273 0 .542.02.808.051l.795 2.236c.207.07.407.151.601.246l2.14-1.018c.424.336.807.719 1.142 1.143l-1.017 2.139c.096.193.176.393.246.601l2.236.796c.029.263.049.533.049.806s-.02.541-.05.807l-2.236.795zm-4.714-4.602c-1.657 0-3 1.342-3 3 0 1.656 1.343 3 3 3s3-1.344 3-3c0-1.658-1.343-3-3-3zm0 1.5c-.829 0-1.5.672-1.5 1.5s.671 1.5 1.5 1.5 1.5-.672 1.5-1.5-.671-1.5-1.5-1.5z"/></svg>