<?xml version="1.0" encoding="UTF-8" standalone="no"?><svg xmlns:dc="http://purl.org/dc/elements/1.1/" xmlns:cc="http://creativecommons.org/ns#" xmlns:rdf="http://www.w3.org/1999/02/22-rdf-syntax-ns#" xmlns:svg="http://www.w3.org/2000/svg" xmlns="http://www.w3.org/2000/svg" version="1.1" width="16" height="16"><g transform="translate(0,-48)"><path d="m 8.0078107,49 a 1.3623247,1.3618762 0 0 0 -0.1327821,0.0078 1.3623247,1.3618762 0 0 0 -1.0935,0.749582 L 1.1421931,61.032348 A 1.3623247,1.3618762 0 0 0 2.3606644,63 l 11.2786716,0 a 1.3623247,1.3618762 0 0 0 1.218471,-1.967652 L 9.2184714,49.75739 A 1.3623247,1.3618762 0 0 0 8.0078107,49 z" style="fill:#ffcc00;" /><path d="m 7.5372151,58.862661 -0.4276365,-4.356944 0,-2.014501 1.7808428,0 0,2.014501 -0.4217786,4.356944 z" style="fill:#000000;" /><path d="m 7.179875,61.076269 0,-1.645566 1.6461079,0 0,1.645566 z" style="fill:#000000;" /></g></svg>
