<?xml version="1.0" encoding="utf-8"?>
<!-- Generator: Adobe Illustrator 18.0.0, SVG Export Plug-In . SVG Version: 6.00 Build 0)  -->
<!DOCTYPE svg PUBLIC "-//W3C//DTD SVG 1.1//EN" "http://www.w3.org/Graphics/SVG/1.1/DTD/svg11.dtd">
<svg version="1.1" id="svg2" xmlns:svg="http://www.w3.org/2000/svg"
	 xmlns="http://www.w3.org/2000/svg" xmlns:xlink="http://www.w3.org/1999/xlink" x="0px" y="0px" viewBox="0 0 210.9 204"
	 enable-background="new 0 0 210.9 204" xml:space="preserve">
<g id="layer1" transform="translate(765.794,-397.17063)">
	<path id="path17935" d="M-709.2,567.3c0,0-3-4.4-3.5-5.3c-0.5-1-8.7-31.6-6.7-41.8c2-10.2,2.7-18,4.5-20.2
		c1.7-2.2,11.7-14.3,12.9-15.1c1.2-0.7,6.5-9,9.7-9s26.3,10.2,29.3,9.7c3-0.5,15.9-0.5,16.9-1.2s4.7-3.6,4.7-3.6l3.5-1.9
		c0,0,7.9-0.7,9.4-0.7c1.5,0,10.9,5.3,13.4,8c2.5,2.7,18.1,20.2,17.9,29.4c-0.2,9.2,0,16.5-1,19.2s-3.7,12.2-4.5,14.8
		s-2.2,8.3-2.5,10.5s-3,4.4-4,5.3c-1,1-13.9,2.9-16.4,3.9s-10.2,6.3-12.4,7.3c-2.2,1-7.2,4.4-7.2,4.4s-6.9,6.8-8.4,7.5
		c-1.5,0.7-14.1,3.2-18.6,0.5s-9.4-7.3-11.7-10c-2.2-2.7-7.2-7.8-8.9-9.2C-694.6,568.3-709.2,567.8-709.2,567.3z" 
        class="svgStyle" 
        style="fill-opacity:1;fill-rule:evenodd;stroke:none;stroke-width:1px;stroke-linecap:butt;stroke-linejoin:miter;stroke-opacity:1"/>
	
		<linearGradient id="path6186_1_" gradientUnits="userSpaceOnUse" x1="-549.8881" y1="725.113" x2="-517.5485" y2="766.2974" gradientTransform="matrix(1.6598 0 0 -1.5672 189.3932 1645.468)">
		<stop  offset="0" style="stop-color:#000000"/>
		<stop  offset="1" style="stop-color:#FFFFFF"/>
	</linearGradient>
	<path id="path6186" fill="url(#path6186_1_)" d="M-660.7,457.9c0,14.3-9,26-20,26s-20-11.6-20-26c0,0,0,0,0,0c0-14.3,9-26,20-26
		S-660.7,443.5-660.7,457.9C-660.7,457.9-660.7,457.9-660.7,457.9z"/>
	<path id="path6184" fill="#CCCCCC" d="M-708.1,566.2c0,0-5.3-14.8-5.4-26.8c-0.2-11.9-0.8-18.9,1.5-27.9c2.3-9,2.3-10.2,2.3-10.2
		l-11.9,22.3c0,0-1.8,9.8-2,10.8s1.5,18.7,1.5,18.7l1.8,6.1l4,6.1l2.3,2.1L-708.1,566.2z"/>
	<path id="path4226" fill="#CCCCCC" d="M-610.8,566.5c0,0,5.3-14.8,5.4-26.8c0.2-11.9,0.8-18.9-1.5-27.9c-2.3-9-2.3-10.2-2.3-10.2
		l11.9,22.3c0,0,1.8,9.8,2,10.8s-1.5,18.7-1.5,18.7l-1.8,6.1l-4,6.1l-2.3,2.1L-610.8,566.5z"/>
	
		<linearGradient id="path2253_1_" gradientUnits="userSpaceOnUse" x1="-463.8141" y1="722.4279" x2="-459.2225" y2="728.1882" gradientTransform="matrix(1.5915 0 0 -1.5915 162.5523 1662.5376)">
		<stop  offset="0" style="stop-color:#000000;stop-opacity:0.7195"/>
		<stop  offset="1" style="stop-color:#FFFFFF;stop-opacity:0"/>
	</linearGradient>
	<path id="path2253" fill="url(#path2253_1_)" d="M-589.8,491.6l0.7,2.8l29.9,29.9l2.9,2.4l1.1-0.6l-1.3-3.6l-4.2-5.8l-5.3-5.6
		l-8.9-7.4l-5.7-4.5l-4.9-4.4l-2-2l-0.9-0.7L-589.8,491.6z"/>
	
		<linearGradient id="path10113_1_" gradientUnits="userSpaceOnUse" x1="-531.9623" y1="731.7527" x2="-474.0898" y2="758.9581" gradientTransform="matrix(1.7781 0 0 -1.9038 221.3084 1895.1682)">
		<stop  offset="0" style="stop-color:#000000"/>
		<stop  offset="1" style="stop-color:#FFFFFF"/>
	</linearGradient>
	<path id="path10113" fill="url(#path10113_1_)" d="M-618.1,458.9c0,9.9-9.3,18-20.8,18c-11.5,0-20.8-8-20.8-17.9c0,0,0,0,0,0
		c0-9.9,9.3-18,20.8-18S-618.1,449-618.1,458.9C-618.1,458.9-618.1,458.9-618.1,458.9z"/>
	
		<linearGradient id="path13048_1_" gradientUnits="userSpaceOnUse" x1="-445.2319" y1="702.425" x2="-504.461" y2="765.4267" gradientTransform="matrix(1.5915 0 0 -1.5915 162.5523 1662.5376)">
		<stop  offset="0" style="stop-color:#000000"/>
		<stop  offset="1" style="stop-color:#FFFFFF"/>
	</linearGradient>
	<path id="path13048" fill="url(#path13048_1_)" d="M-630.9,469.7c0,0,4.4-0.3,6.4-1.1c2-0.8,4.8-2.7,4.8-2.7s4.3-7.7-2-16.8
		c-6.3-9-21.9-7.3-21.9-7.3l-2,1.1L-630.9,469.7z"/>
	
		<linearGradient id="path12067_1_" gradientUnits="userSpaceOnUse" x1="-531.0145" y1="743.5339" x2="-497.4353" y2="760.5731" gradientTransform="matrix(1.5915 0 0 -1.5915 162.5523 1662.5376)">
		<stop  offset="0" style="stop-color:#000000"/>
		<stop  offset="1" style="stop-color:#FFFFFF"/>
	</linearGradient>
	<path id="path12067" fill="url(#path12067_1_)" d="M-644.6,442.9L-644.6,442.9c0,0,9.2,1.6,14.7,11.9c5.4,10.3-0.3,15-0.3,15
		s-10.9,2.1-17.5-1.3c-6.6-3.4-9.7-14.7-9.7-14.7s0.3-3.7,5.3-6.9C-647.2,443.7-644.4,443.1-644.6,442.9z"/>
	
		<linearGradient id="path7165_1_" gradientUnits="userSpaceOnUse" x1="-569.2292" y1="740.3099" x2="-523.3703" y2="760.551" gradientTransform="matrix(1.5915 0 0 -1.5915 162.5523 1662.5376)">
		<stop  offset="0" style="stop-color:#000000"/>
		<stop  offset="1" style="stop-color:#FFFFFF"/>
	</linearGradient>
	<path id="path7165" fill="url(#path7165_1_)" d="M-694.2,439.7c0,0-1.6,14.5,5.1,23.2c6.8,8.7,18.4,12.3,18.4,12.3s3.5-16.1-3-24.4
		C-680,442.6-694.2,439.7-694.2,439.7z"/>
	
		<linearGradient id="path3205_1_" gradientUnits="userSpaceOnUse" x1="-527.2255" y1="734.399" x2="-506.6287" y2="747.6024" gradientTransform="matrix(1.5915 0 0 -1.5915 162.5523 1662.5376)">
		<stop  offset="0" style="stop-color:#FFBA00"/>
		<stop  offset="1" style="stop-color:#FFFFBA"/>
	</linearGradient>
	<path id="path3205" fill="url(#path3205_1_)" d="M-677.7,477.3c-0.3,0.1-0.8,1.7-0.8,1.7s-0.3,0.9-0.1,1.5c0.1,0.6,0,1.2,0.3,1.7
		c0.3,0.5,14.9,16.4,14.9,16.4s0.9,1.5,2.6,1.3c1.7-0.2,2.3-0.4,2.8-0.7c0.5-0.3,12.8-12.4,12.8-12.4l4.3-5.4c0,0,0.3-1.3,0.2-2.5
		c-0.1-1.2-2.1-3.1-2.1-3.1s-1.9-1.2-2.4-1.4c-0.5-0.2-8-3.3-12.8-3.5s-12.3,1.8-12.3,1.8L-677.7,477.3z"/>
	<path id="path2227" fill="#CDA809" d="M-732.3,598.7c-4.8-1.7-6.6-4.8-6.3-10.5c0.5-8.3,5.9-14.3,17.4-19.5
		c7-3.2,11.3-3.9,21.3-3.6c7.1,0.2,9,0.5,13,1.7c8.9,2.8,16.3,8.1,19.5,13.8c1.7,3,2.4,8,1.7,11.5c-0.5,2.5-2.7,5.1-5.5,6.3
		c-2.1,0.9-4.2,1-30.6,1C-724.4,599.4-730.6,599.3-732.3,598.7z M-701.6,592.4c11.9-0.6,12.2-0.6,13.7-2c5.1-4.7,3.4-13-3.6-17.8
		c-4.4-3-9.3-4.1-16.2-3.8c-9.5,0.4-16,3.7-19,9.7c-2.4,4.8-1.5,9.9,2.4,13C-722.3,593.3-720.7,593.3-701.6,592.4z M-648.1,598.8
		c-0.9-0.3-2.6-1.4-3.7-2.4c-7.4-6.9-1.1-20.8,12.3-27.1c6.9-3.2,13-4.5,21.3-4.5c8.5,0,11.5,0.6,18.1,3.4
		c6.5,2.7,10.3,5.2,13.8,8.9c4.5,4.8,6.3,11.9,4.3,16.6c-1,2.2-3.7,4.5-6.3,5.2C-591,599.7-645.8,599.6-648.1,598.8z M-591,591.5
		c7.3-6.1,3.4-17.1-7.6-21.3c-4.4-1.7-13.2-2.1-18.1-0.8c-11.8,3.1-17.5,13.7-11,20.6l1.8,1.9l8,0.4c4.4,0.2,11.8,0.4,16.6,0.5
		l8.6,0.1L-591,591.5z M-662.5,500c-0.7-0.4-4.7-4.5-8.9-9.3c-7.1-7.9-7.8-8.8-7.8-10.7c0-1.1,0.3-2.5,0.6-3.1
		c0.7-1.3,5.5-3.7,11.1-5.5c7.1-2.3,14.1-1.3,23.7,3.4c1.1,0.5,2.4,1.4,2.9,1.9c1.1,1.1,1.1,3.5,0.1,4.8c-0.7,0.9-0.7,0.8-0.5-0.6
		c0.3-2.3-1.2-4.8-3.6-6c-5.6-2.8-13.9-4.3-18.7-3.3c-4,0.8-9.2,2.9-9.2,3.7c0,0.4,1.6,1.3,3.6,1.9c7.1,2.4,13.1,6.1,16.9,10.5
		c1.1,1.2,2.2,2.2,2.6,2.2c0.3,0,1.7-1,3.1-2.3c3.7-3.5,1.9-0.8-3.9,5.6C-657,500.3-659.4,501.7-662.5,500z M-658.1,498.1
		c0.6-0.6-18.6-19.7-19.3-19.3c-0.3,0.2-0.6,1.1-0.6,2c0,1.3,1.5,3.2,7.5,9.7c4.1,4.4,7.9,8.2,8.4,8.3
		C-661.2,499-658.7,498.6-658.1,498.1z"/>
	
		<linearGradient id="path6164_1_" gradientUnits="userSpaceOnUse" x1="-554.2095" y1="718.0194" x2="-579.2491" y2="727.4147" gradientTransform="matrix(1.5915 0 0 -1.5915 162.5523 1662.5376)">
		<stop  offset="0" style="stop-color:#000000"/>
		<stop  offset="1" style="stop-color:#FFFFFF"/>
	</linearGradient>
	<path id="path6164" fill="url(#path6164_1_)" d="M-731.8,492.1c0,0-9.2,8.4-11.9,10.8s-6.3,4.7-10.7,8.8c-4.3,4.1-8.1,8.9-8.4,9.4
		c-0.2,0.5-1.6,2.4-1.5,3.5s-0.3,2.7,0.5,2.4c0.9-0.3,18.1-16.1,19.3-17.4c1.2-1.3,9.6-9.6,11.3-11.4s2.7-3.8,2.7-3.8l0.5-1.8
		l0.1-0.5H-731.8z"/>
	<path id="path2225" fill="#636363" d="M-667.8,596.1c2.1-2.3,2.6-4.6,2.2-9.3c-0.2-2.3-0.8-4.3-1.8-6.2c-1.8-3.3-6.6-7.8-10.8-10.2
		c-1.6-0.9-2.7-1.7-2.5-1.7c1,0,8.5,4.2,12.5,7c2.3,1.6,5,3.2,6.1,3.6c2.5,0.9,3.8,0.3,9.9-4c2.6-1.8,6.9-4.3,9.6-5.4
		c6.9-2.9,8.6-3.3,3.2-0.6c-13.4,6.5-19.5,19.6-12.6,27l1.7,1.9l-2.1-1.5c-1.9-1.4-2.7-1.6-7.2-1.8c-5-0.2-5-0.2-7.5,1.5l-2.5,1.8
		L-667.8,596.1z M-721.5,561.2c-7.7-11.4-11.8-23-12.7-36c-0.2-3-0.6-5.8-0.9-6.1c-1.1-1.1-7,1.4-16.5,6.7
		c-9.2,5.2-9.8,5.4-11.6,4.6c-1.3-0.6-1.7-1.2-1.9-3.2c-0.4-2.9,0.6-5.1,4.2-9.6c4.2-5.1,6.8-7.6,13.7-13
		c19.8-15.6,24.8-24.5,26.2-47.1c0.6-9.2,0.9-11.4,2.8-17.2c6.1-18.4,23-33.8,42.6-38.8c21.6-5.5,44.3,0.7,59.9,16.6
		c11.3,11.5,15.9,22.5,17,40c1.3,22.1,6.4,31,26.5,46.9c10.6,8.3,17.5,16.7,17.7,21.3c0.1,2.7-0.6,3.9-2.7,4.4
		c-1.5,0.4-3.4-0.5-13.5-6.1c-7.6-4.3-13-6.3-14.2-5.4c-0.5,0.4-0.7,1.8-0.7,3.9c0,4.4-1.3,11.9-3,17.9c-2.3,7.9-6.2,15.2-13.5,25.8
		c-0.2,0.3-0.8,0.2-1.5-0.1c-1.1-0.6-1.1-0.6,0.7-3.2c1-1.4,2.3-3.3,2.8-4.3c0.8-1.6,0.8-1.8,0-1.8c-0.7,0-0.8-0.5-0.8-2.3
		c0-1.3,0-7.9-0.1-14.7c-0.2-10.6-0.4-13.2-1.5-17.8c-4-16.9-11.8-30.3-22.4-38.6c-5.6-4.4-7.8-5.2-11.8-4.6l-3.2,0.5l-0.2-1.5
		c-0.2-1.4-0.1-1.5,1.7-1.5c4.9,0,12-3,15.2-6.5c2.6-2.9,4.4-7.6,4.4-11.8c0-8.6-7.7-15.7-17.7-16.6c-3.1-0.3-4.6-0.1-7.7,0.9
		c-4.2,1.3-8.5,4.2-10.5,7.1l-1.3,1.9l-2.3,7.1c1,0.2,5.6-6.4,5.3-6.4c-1.1,0.1-0.8,1.8,0.6,3.5c1.1,1.4,1.4,1.5,2.5,0.9
		c1.5-0.8,1.5-1.1,0-3.1c-0.9-1.2-0.7-1.1,0.8,0.4c4.4,4.4-1.9,8.9-2.9,14.6c0,0.2-3.7-1.7-3.5-1.4c0.2,0.3,0.4,3-2.6,2.7
		c-2.5-0.2-1.5-8-2.6-8c-4.8,0-11.4,3.9-11.4-2.6c0-3.3,0.2-4.4,1.3-6.1c1.2-1.9,2.8-2.7,2.8-1.5c0,0.3,0.6,1.3,1.2,2.3
		c0.7,1,1.3,1.8,1.4,1.9c0.3,0.6,2.9-0.6,2.9-1.3c0-0.6,0.3-0.7,0.9-0.5c1.6,0.6,0.6-5.2-1.7-9.7c-5.7-11.2-17.1-15.1-26.5-9.1
		c-5.9,3.8-10.7,13.7-10.7,22.1c0,4,1.4,9.8,3.3,13.5c2.4,4.7,7.7,9.6,11.8,10.8c1.7,0.5,4,0.8,5,0.7c1.8-0.2,2.2,0.2,9.4,8.2
		c4.1,4.6,8.1,8.7,8.9,9.1c2.4,1.2,4.7,0.4,7.7-2.8c1.5-1.5,3.9-4,5.3-5.5c2.2-2.3,2.5-2.5,2-1.2c-2.5,6.8-7.9,11.7-12.8,11.7
		c-3.3,0-5.9-1.9-11.6-8.6c-4.7-5.5-7.1-7.6-9.8-8.6c-1-0.4-3.5-1.4-5.5-2.3l-3.7-1.6l-2.1,1.3c-9.1,5.9-17.3,17.9-22.1,32.1
		c-3.1,9.1-4,15.4-3.9,25.8c0.2,12.1-0.2,17-1.2,17c-0.8,0,0.5,2.7,2.5,5.5c2.2,3,2.3,3.4,0.9,3.8
		C-717.4,566.9-718.4,565.8-721.5,561.2z M-596,556.3c0.3-0.6,0.5-1.1,0.3-1.1s-0.5,0.5-0.9,1.1c-0.3,0.6-0.5,1.1-0.3,1.1
		S-596.4,556.9-596,556.3z M-589.7,542.5c1.8-5,3-11.8,3.4-17.9c0.5-8,0.6-8.2,5.2-6.7c1.9,0.6,5,2,6.8,2.9
		c8.2,4.4,13.6,7.7,13.9,8.3c0.3,0.8,3.8,0.9,4.3,0.2c0.2-0.3,0-0.5-0.4-0.5c-0.4,0-2.5-2-4.6-4.4c-2.1-2.4-6.6-6.8-9.9-9.6
		c-3.3-2.9-8.7-7.9-11.8-11.1c-5.2-5.3-5.9-6.3-7.3-9.9c-0.8-2.2-1.5-4.7-1.5-5.5c0-0.8-0.7-2.6-1.6-4c-3.2-5.2-5.4-14.4-6.1-25.8
		c-0.7-11.6-2.2-17.6-6.3-25.7c-7.5-14.7-21.7-26-38.3-30.4c-6.5-1.7-19-2.4-25.8-1.3c-19.8,3.1-37.4,16.2-45.6,33.8
		c-3.1,6.6-4.6,13.2-5.2,22.9c-0.7,12.1-2.8,20.7-6.6,27.2c-0.9,1.6-1.5,3.3-1.3,3.7c0.3,0.9-1.2,5.4-3,8.9
		c-1.1,2-11.4,12.2-19.7,19.4c-2.5,2.1-6,5.7-8,8c-1.9,2.2-3.8,4.1-4.2,4.1c-0.4,0-0.6,0.2-0.4,0.5c0.6,0.9,3.1,0.6,4.4-0.4
		c1.4-1.2,10.4-6.4,14.9-8.6c4.9-2.4,9.1-3.6,9.8-2.9c0.3,0.3,0.8,3.6,1.1,7.2c0.5,7.6,2.4,15.8,4.9,21.8c1.8,4.2,2.8,5.4,1.2,1.5
		c-0.5-1.2-0.8-2.4-0.6-2.6c0.2-0.2,2,1,4,2.7c2,1.7,3.8,3,4,3c0.2,0,0.4-4.7,0.4-10.4c0-7.7,0.3-11.6,1-15.2
		c3.6-17.9,11.8-32.3,24-42.5l3-2.5l-2.6-2.7c-9.5-9.9-9.9-27.3-1-38.3c2.8-3.4,6.7-5.8,11.6-7.1l4.1-1l-2.8,0
		c-3.7,0-8.7,1.2-13,3.2c-4.6,2.1-5,1.3-1.2-2.2c4.2-3.8,7.9-5,15-5c5.4,0,6,0.1,9.4,1.7c3.6,1.7,9,6.6,7.8,7
		c-0.3,0.1-1.8-0.4-3.3-1.1c-2.7-1.3-5.2-2.2-8.2-2.8c-1-0.2-0.3,0.3,1.9,1.4c6.6,3.2,11.8,10,13.4,17.7c0.4,1.8,0.8,3.3,1,3.5
		c0.2,0.2,1-1,1.8-2.6c3.8-7.6,13.7-12.3,22.7-10.7c7,1.3,12.7,5.3,15.5,10.8c2,4,2.2,10.3,0.3,14.2c-1.8,3.8-5.8,7.7-9.9,9.6
		c-1.9,0.9-3.5,1.7-3.5,1.8c0,0.1,1.4,1.1,3.2,2.2c10.5,6.8,19.6,19.1,24.6,33.1c3.4,9.6,4.4,16.2,4.4,27.8c0,5.6,0.2,10.1,0.4,10.1
		c0.2,0,2-1.3,3.9-3c5-4.2,5.3-4,2.7,1.7c-0.9,2-1.6,3.7-1.6,3.9C-594.8,554.1-590.7,545.4-589.7,542.5z M-618.4,440.9
		c-2.8-2.5-8.2-5.4-11.9-6.3c-4.2-1.1-11.1-1-15.4,0.3c-2,0.6-5.3,2.2-7.3,3.5c-2,1.3-3.8,2.4-4.1,2.4c-0.2,0-1.2-1.2-2.1-2.7
		c-5.3-8.1-16-13.3-24.8-12.2c-6.2,0.8-14.1,4.9-17.4,9.2c-1.9,2.4-2.4,2.4-2.4-0.1c0-6.2,3.9-14.3,10-20.5
		c9.4-9.6,22.3-14.3,37.6-13.6c22.7,1,40.8,15.9,42,34.7c0.3,4.8-0.1,7.2-1.1,7.2C-615.8,442.9-617.2,442-618.4,440.9z
		 M-648.6,434.5c3.6-1.4,4.4-1.5,11.3-1.6c7.1,0,7.6,0.1,11.8,1.7c2.8,1.1,5.4,1.7,7,1.7l2.6,0v-2.6c0-10.8-10.3-23.3-23.7-28.7
		c-6.7-2.7-11.5-3.5-20.4-3.5c-9.5,0.1-14,1.1-21.8,4.8c-11,5.3-18.7,14.5-20.6,24.6c-0.3,1.3-0.4,2.5-0.3,2.6s1.7-1,3.7-2.4
		c5.7-4.2,9.7-5.7,16-6c4.3-0.2,6.1,0,9.1,0.9c4.4,1.3,9.3,4.4,12.8,7.9c2.4,2.5,2.5,2.5,5.5,2.3
		C-653.9,436.2-650.8,435.4-648.6,434.5z M-652.6,440.2c0.4-1.1,5.5-3.6,9.2-4.5c7.1-1.8,16.7-0.2,20.7,3.4l1.6,1.5l-1.5,0.2
		c-0.8,0.1-3.5-0.2-6-0.7c-5.7-1.1-13.5-1.1-19.1,0C-652.8,440.9-652.9,440.9-652.6,440.2z M-623.2,439.8c-1-0.4-5-3.8-13.7-4
		c-6.5-0.2-10.9,2.5-11.9,3c-1.5,0.7,4.8-0.7,12-0.7S-621.7,440.4-623.2,439.8z M-731.2,494.1c1.4-2.7,0.8-2.3-3.5,1.8
		c-2.3,2.3-7.2,6.4-10.9,9.2c-10.2,7.9-17.9,16.5-17.9,20.1C-763.5,526.5-732.6,496.6-731.2,494.1z M-556.4,525.2c0-1-2-4.5-4.1-7.1
		c-3.3-4.1-8.4-8.9-14.4-13.4c-2.7-2-7.1-5.8-9.8-8.3c-4.7-4.5-5.4-4.9-4.2-2.6c0.7,1.3,31.4,31.7,32,31.7
		C-556.6,525.5-556.4,525.4-556.4,525.2z M-656.8,468.4c-0.4-0.8-1.1-2.5-1.4-3.8c-0.4-1.5-0.8-2.2-1.2-1.9
		c-0.7,0.6-2.1,6.2-1.8,6.8c0.1,0.2,1.4,0.4,2.7,0.4h2.5L-656.8,468.4z M-662.1,464.9c1.1-2.3,1.4-6.6,0.6-7.8
		c-0.3-0.5-0.9-0.5-2.6,0c-1.4,0.4-2.2,0.5-2.3,0.1c-0.5-1.5-2.3-4.2-2.8-4.4c-0.9-0.3-2.3,3.2-2.3,6c0,3.8,4.1,8.3,7.6,8.4
		C-663.5,467.2-662.7,466.2-662.1,464.9z M-648.8,465.5c1-1.9,1.6-4.8,1.2-6.5c-0.3-1.6-0.9-1.7-3.6-0.6c-0.5,0.2-1.3-0.5-2.3-2.2
		c-0.8-1.4-1.7-2.5-2-2.5c-0.9,0-2.2,3.5-2.2,5.9c0,1.8,0.3,2.5,2.3,4.2C-652,467-649.9,467.5-648.8,465.5z M-666.3,434.1
		c-2.8-2-6.3-6.8-17.5-6.3c-5.7,0.3-12.1,5-12.4,5.1c-0.8,0.3,9.2-2.7,14.5-2.7C-673.6,430.3-665.5,434.7-666.3,434.1z
		 M-634.4,566.8c0.2-0.2,0.7-0.2,1.1,0c0.4,0.2,0.3,0.3-0.3,0.3C-634.3,567.1-634.6,566.9-634.4,566.8z"/>
	
		<linearGradient id="path14027_1_" gradientUnits="userSpaceOnUse" x1="-516.7429" y1="743.6439" x2="-515.1502" y2="795.7185" gradientTransform="matrix(1.5915 0 0 -1.5915 162.5523 1662.5376)">
		<stop  offset="0" style="stop-color:#000000"/>
		<stop  offset="1" style="stop-color:#FFFFFF"/>
	</linearGradient>
	<path id="path14027" fill="url(#path14027_1_)" d="M-706.2,436.8l1.2,1.9l3,0.3c0,0,5.4-2.4,6.5-2.9s11.2-3.8,11.2-3.8l4.9-0.5
		l12.8,4l9.5,7.9l7-1.5l10.9-1.7l11.8,0.5l11.1,3.1c0,0,4.4,0,4.6-0.7c0.2-0.7,1.4-8.6,0.9-10.5c-0.5-1.9-3.2-9.5-4.6-11
		c-1.4-1.5-8.1-7.9-8.8-8.6c-0.7-0.7-8.1-5.8-9.3-6.5s-9.7-3.8-9.7-3.8l-17.4-2.2l-7.7,0.3l-10.5,2.4l-15.3,9.3l-7.4,8.8l-3.5,6.7
		L-706.2,436.8z"/>
	
		<linearGradient id="path15977_1_" gradientUnits="userSpaceOnUse" x1="-530.6223" y1="768.387" x2="-528.8466" y2="778.3776" gradientTransform="matrix(1.5915 0 0 -1.5915 162.5523 1662.5376)">
		<stop  offset="0" style="stop-color:#000000"/>
		<stop  offset="1" style="stop-color:#FFFFFF"/>
	</linearGradient>
	<path id="path15977" fill="url(#path15977_1_)" d="M-699.6,436.6l-0.1-1.4l1.4-2.2l3.2-2.6c0,0,3.3-1.8,3.5-1.8
		c0.2-0.1,3.7-1.7,5-1.7s6-0.2,6-0.2s3.7,0.1,4,0.1c0.3,0.1,2.7,0.9,2.7,0.9l4.9,2l5.6,4.6c0,0,0.8,1.4,0.7,1.7
		c-0.1,0.3-0.6,0.9-0.6,0.9s-2-0.4-2.6-0.6c-0.6-0.2-2.5-0.9-2.8-1c-0.2-0.1-2.9-1.5-3.4-1.5c-0.5-0.1-3.7-1-3.7-1l-2.6-0.5
		l-2.4-0.4l-3,0.1l-9.6,2.4l-3.5,1.6l-2,0.7L-699.6,436.6z"/>
	
		<linearGradient id="path16956_1_" gradientUnits="userSpaceOnUse" x1="-502.6258" y1="765.2604" x2="-502.4097" y2="774.5895" gradientTransform="matrix(1.5915 0 0 -1.5915 162.5523 1662.5376)">
		<stop  offset="0" style="stop-color:#000000"/>
		<stop  offset="1" style="stop-color:#FFFFFF"/>
	</linearGradient>
	<path id="path16956" fill="url(#path16956_1_)" d="M-654.5,442.5c0,0,4.2-0.4,5.5-0.9c1.2-0.4,7.4-1.2,7.8-1.2
		c0.4-0.1,6.8-0.4,8.6,0c1.8,0.4,8.5,1.4,9,1.4s3.2-0.1,3.2-0.1s0.7-1.2,0.4-1.6c-0.3-0.4-1-0.7-1.4-1c-0.4-0.2-3.4-1.8-3.8-2.2
		c-0.5-0.4-5.8-2.1-6.1-2.1s-5.7-0.3-7.1-0.3s-5.1,0.4-5.7,0.7c-0.6,0.2-3.9,1.5-4.5,1.7c-0.6,0.2-2.2,0.9-2.9,1.5
		c-0.6,0.6-1.4,1.5-1.5,1.8C-653.3,440.4-654.3,442.5-654.5,442.5z"/>
	<path id="path9083" fill="#636363" d="M-659.6,461.8l-1.7,4.2l-1.7,4.4c0,0,1.7-0.3,3.6-0.2c1.9,0.1,4.9,0.6,4.9,0.6l-1-1.3
		l-0.8-1.3c0,0-0.9-1.1-1.2-2.2s-0.9-2.7-0.9-2.7l-0.7-1.2L-659.6,461.8z"/>
	<path id="path2223" fill="#070707" d="M-596.6,556.3c0.3-0.6,0.7-1.1,0.9-1.1s0,0.5-0.3,1.1c-0.3,0.6-0.7,1.1-0.9,1.1
		S-596.9,556.9-596.6,556.3z M-594.9,553.5c0-0.2,0.7-1.9,1.6-3.9c2.6-5.7,2.3-5.9-2.7-1.7c-1.9,1.6-3.7,3-3.9,3
		c-0.2,0-0.4-4.6-0.4-10.1c0-11.6-1-18.2-4.4-27.8c-4.9-14-14.1-26.3-24.6-33.1c-1.7-1.1-3.2-2.1-3.2-2.2c0-0.1,1.6-0.9,3.5-1.8
		c4.1-1.9,8.1-5.9,9.9-9.6c1.8-3.9,1.7-10.2-0.3-14.2c-2.8-5.5-8.5-9.5-15.5-10.8c-9-1.6-18.9,3-22.7,10.7c-0.8,1.6-1.6,2.8-1.8,2.6
		c-0.2-0.2-0.6-1.8-1-3.5c-1.6-7.7-6.8-14.5-13.4-17.7c-2.2-1.1-4.9-1.8-3.9-1.6c3,0.6,7.4,1.6,10.1,2.9c1.5,0.7,2.9,1.2,3.3,1.1
		c1.2-0.4-4.2-5.3-7.8-7c-3.4-1.6-4-1.8-9.4-1.7c-7.1,0-10.8,1.2-15,5c-3.8,3.5-3.4,4.3,1.2,2.2c4.3-2,9.2-3.2,13-3.2l4.9,0.6
		l-6.2,0.4c-5,1.3-8.9,3.6-11.6,7.1c-8.9,11-8.4,28.4,1,38.3l2.6,2.7l-3,2.5c-12.3,10.2-20.5,24.6-24,42.5c-0.7,3.6-1,7.5-1,15.2
		c0,5.7-0.2,10.4-0.4,10.4c-0.2,0-2-1.4-4-3c-2-1.7-3.8-2.9-4-2.7c-0.2,0.2,0.1,1.3,0.6,2.6c1.6,4,0.6,2.8-1.2-1.5
		c-2.5-5.9-4.4-14.2-4.9-21.8c-0.2-3.6-0.7-6.9-1.1-7.2c-0.7-0.7-4.9,0.5-9.8,2.9c-4.5,2.2-13.5,7.4-14.9,8.6
		c-1.2,1.1-3.8,1.3-4.4,0.4c-0.2-0.3,0-0.5,0.4-0.5c0.4,0,2.3-1.8,4.2-4.1c1.9-2.2,5.5-5.8,8-8c8.3-7.2,18.6-17.4,19.7-19.4
		c1.8-3.5,3.4-8,3-8.9c-0.2-0.5,0.4-2.1,1.3-3.7c3.8-6.5,5.9-15.1,6.6-27.2c0.6-9.6,2.1-16.2,5.2-22.9c8.3-17.7,25.9-30.7,45.6-33.8
		c6.8-1.1,19.3-0.4,25.8,1.3c16.6,4.5,30.8,15.8,38.3,30.4c4.2,8.2,5.6,14.1,6.3,25.7c0.7,11.3,2.9,20.6,6.1,25.8
		c0.9,1.4,1.6,3.2,1.6,4c0,0.8,0.7,3.3,1.5,5.5c1.4,3.6,2.1,4.6,7.3,9.9c3.2,3.2,8.5,8.2,11.8,11.1c3.3,2.9,7.8,7.2,9.9,9.6
		c2.1,2.4,4.2,4.4,4.6,4.4c0.4,0,0.6,0.2,0.4,0.5c-0.5,0.8-4,0.7-4.3-0.2c-0.3-0.6-5.6-3.9-13.9-8.3c-1.8-1-4.9-2.3-6.8-2.9
		c-4.6-1.5-4.7-1.3-5.2,6.7c-0.4,6.1-1.7,12.9-3.4,17.9C-590.7,545.4-594.8,554.1-594.9,553.5z M-614.4,441.5
		c0.2-0.8,0.2-3.4,0.1-5.8c-1.2-18.8-19.3-33.8-42-34.7c-15.4-0.6-28.3,4-37.6,13.6c-6,6.2-10,14.3-10,20.5c0,2.4,0.6,2.5,2.4,0.1
		c3.3-4.3,11.2-8.4,17.4-9.2c8.9-1.1,19.5,4.1,24.8,12.2c1,1.5,1.9,2.7,2.1,2.7c0.2,0,2-1.1,4.1-2.4c2-1.3,5.3-2.9,7.3-3.5
		c4.3-1.3,11.2-1.5,15.4-0.3c3.8,1,9.1,3.8,11.9,6.3C-615.7,443.3-614.9,443.4-614.4,441.5z M-647.6,440c5.6-1,13.4-1,19.1,0
		c2.5,0.5,5.2,0.8,6,0.7l1.5-0.2l-1.6-1.5c-4-3.6-13.6-5.2-20.7-3.4c-3.7,0.9-8.9,3.5-9.2,4.5C-652.9,440.9-652.8,440.9-647.6,440z
		 M-765.5,526C-765.2,525.9-765.4,526-765.5,526c0,0.2,0.1-0.4,0,0.3C-765.6,527-765.5,526.2-765.5,526z M-555.8,527.1
		c0-0.9,0.6-1.1,0.7-0.7c0.2,0.4,0.3,0.5,0.1,1.1S-555.8,528-555.8,527.1z M-662.1,469.7c-0.3-0.5,1.8-6.7,2.7-7
		c0.9-0.3,0.8,0.4,1.2,1.9c0.4,1.3,1,3,1.4,3.8l1.6,2.1l-3.3-0.6C-659.9,469.9-662,470-662.1,469.7z M-666.4,466.4
		c-2.7-1.1-5.1-4.8-5.1-7.7c0-2.8,1.3-6.3,2.3-6c0.6,0.2,2.3,2.9,2.8,4.4c0.1,0.4,0.9,0.3,2.3-0.1c2.6-0.8,3-0.4,3,3.1
		c0,2.7-1.8,7-2.8,7C-664.3,467.2-665.4,466.9-666.4,466.4z M-652.3,466.2c-0.5-0.2-1.9-1.3-3.2-2.4c-1.9-1.7-2.3-2.4-2.3-4.2
		c0-2.4,1.3-5.9,2.2-5.9c0.3,0,1.2,1.1,2,2.5c1,1.6,1.7,2.4,2.3,2.2c2.8-1,3.3-0.9,3.6,0.6c0.4,1.7-0.2,4.6-1.2,6.5
		C-649.5,466.7-650.6,466.9-652.3,466.2z"/>
	
		<linearGradient id="path8144_1_" gradientUnits="userSpaceOnUse" x1="-509.6253" y1="751.8325" x2="-503.7883" y2="759.2591" gradientTransform="matrix(1.7904 0 0 -1.5915 240.6071 1662.5376)">
		<stop  offset="0" style="stop-color:#000000"/>
		<stop  offset="1" style="stop-color:#FFFFFF"/>
	</linearGradient>
	<path id="path8144" fill="url(#path8144_1_)" stroke="#000000" d="M-660.4,459.8c0,5.1-2.6,9.3-5.9,9.3c-3.3,0-5.9-4.1-5.9-9.3
		c0,0,0,0,0,0c0-5.1,2.6-9.3,5.9-9.3C-663.1,450.5-660.4,454.6-660.4,459.8C-660.4,459.7-660.4,459.7-660.4,459.8z"/>
	<path id="path10092" stroke="#000000" stroke-width="1.4891" d="M-668.8,451.9c-1,1.5-1.6,3.8-1.6,6.3c0,4.6,2.2,8.4,4.8,8.4
		s4.8-3.8,4.8-8.4c0-0.8-0.1-1.7-0.2-2.4l-0.3,0.2l-4.3,1.6c0,0-0.5-2.1-1.3-3.2C-667.3,453.9-668.1,452.9-668.8,451.9z"/>
	<g id="g10107" transform="matrix(1.4229651,0,0,1.376695,-956.36423,104.4242)">
		
			<linearGradient id="path10103_1_" gradientUnits="userSpaceOnUse" x1="294.1271" y1="471.9142" x2="299.9641" y2="479.3408" gradientTransform="matrix(1.6008 0 0 -1.3767 -261.0708 912.1087)">
			<stop  offset="0" style="stop-color:#000000"/>
			<stop  offset="1" style="stop-color:#FFFFFF"/>
		</linearGradient>
		<path id="path10103" fill="url(#path10103_1_)" stroke="#000000" d="M217,258.5c0,3.2-1.7,5.8-3.7,5.8c-2.1,0-3.7-2.6-3.7-5.8
			c0,0,0,0,0,0c0-3.2,1.7-5.8,3.7-5.8C215.3,252.7,217,255.3,217,258.5C217,258.5,217,258.5,217,258.5z"/>
		<path id="path10105" stroke="#000000" stroke-width="0.9357" d="M211.7,253.6c-0.6,1-1,2.4-1,4c0,2.9,1.4,5.3,3,5.3s3-2.4,3-5.3
			c0-0.5,0-1-0.1-1.5l-0.2,0.1l-2.7,1c0,0-0.3-1.3-0.8-2C212.6,254.8,212.2,254.2,211.7,253.6z"/>
	</g>
	<path id="path15006" d="M-680,431.8l3.6,0.9l3.4,1.1l1.2,0.2l-2.2-1.2l-2.9-0.9l-1-0.3h-1.7L-680,431.8z"/>
	
		<linearGradient id="path22858_1_" gradientUnits="userSpaceOnUse" x1="-541.974" y1="639.5619" x2="-534.7369" y2="660.1117" gradientTransform="matrix(1.7348 0 0 -1.8906 229.0096 1806.9429)">
		<stop  offset="0" style="stop-color:#FFBA00"/>
		<stop  offset="1" style="stop-color:#FFFFBA"/>
	</linearGradient>
	<path id="path22858" fill="url(#path22858_1_)" d="M-684.6,583.4c0,8.2-9.8,14.9-22,14.9c-12.1,0-22-6.7-22-14.9
		c0-8.2,9.8-14.9,22-14.9C-694.4,568.5-684.6,575.1-684.6,583.4z"/>
	
		<linearGradient id="path3201_1_" gradientUnits="userSpaceOnUse" x1="-647.9532" y1="639.5619" x2="-640.7162" y2="660.1117" gradientTransform="matrix(1.7348 0 0 -1.8906 510.1668 1806.9429)">
		<stop  offset="0" style="stop-color:#FFBA00"/>
		<stop  offset="1" style="stop-color:#FFFFBA"/>
	</linearGradient>
	<path id="path3201" fill="url(#path3201_1_)" d="M-587.3,583.4c0,8.2-9.8,14.9-22,14.9c-12.1,0-22-6.7-22-14.9
		c0-8.2,9.8-14.9,22-14.9C-597.1,568.5-587.3,575.1-587.3,583.4z"/>
	<path id="path8112" fill="#CDA809" d="M-645.2,486.2l3.8-4.6l0.3,0.1l-4.2,5L-645.2,486.2z"/>
</g>
</svg>
